<svg width="160" height="160" viewBox="0 0 160 160" fill="none" xmlns="http://www.w3.org/2000/svg">
<circle cx="80" cy="80" r="80" fill="#D9D9D9" fill-opacity="0.16"/>
<circle cx="80" cy="80" r="79.5" stroke="#CCCCCC" stroke-opacity="0.8"/>
<path d="M124.12 62.6579C123.831 61.7475 123.276 60.9446 122.526 60.3533C121.776 59.762 120.865 59.4095 119.913 59.3415L95.901 57.3884L86.651 34.9939C86.2867 34.1082 85.6674 33.3507 84.8717 32.8176C84.0761 32.2846 83.14 32 82.1823 32C81.2245 32 80.2884 32.2846 79.4928 32.8176C78.6971 33.3507 78.0778 34.1082 77.7135 34.9939L68.4635 57.3884L44.4518 59.3415C43.4976 59.4226 42.5885 59.7835 41.8386 60.3791C41.0887 60.9747 40.5313 61.7785 40.2364 62.6896C39.9415 63.6007 39.9221 64.5786 40.1807 65.5007C40.4393 66.4227 40.9644 67.2479 41.6901 67.8728L59.9909 83.6579L54.3971 107.248C54.1628 108.18 54.2126 109.162 54.54 110.066C54.8674 110.97 55.4575 111.756 56.2346 112.322C57.0117 112.888 57.9403 113.209 58.9012 113.244C59.8621 113.279 60.8115 113.026 61.6276 112.517L82.1823 99.8767L102.737 112.517C103.544 113.027 104.487 113.281 105.442 113.246C106.396 113.21 107.317 112.887 108.085 112.318C108.873 111.76 109.475 110.976 109.811 110.07C110.147 109.164 110.202 108.178 109.967 107.24L104.374 83.6384L122.674 67.8533C123.408 67.2316 123.938 66.404 124.195 65.4777C124.453 64.5514 124.427 63.5691 124.12 62.6579ZM120.631 65.4939L101.616 81.9001C101.399 82.0869 101.238 82.3296 101.15 82.6017C101.062 82.8737 101.05 83.1648 101.116 83.4431L106.924 107.97C107.01 108.306 106.991 108.659 106.871 108.983C106.751 109.308 106.535 109.588 106.253 109.787C105.983 109.988 105.66 110.102 105.324 110.114C104.989 110.127 104.657 110.037 104.374 109.857L83.0026 96.7126C82.756 96.5605 82.472 96.48 82.1823 96.48C81.8925 96.48 81.6085 96.5605 81.3619 96.7126L59.9909 109.857C59.7075 110.037 59.376 110.127 59.0405 110.114C58.7049 110.102 58.3811 109.988 58.1119 109.787C57.8291 109.588 57.6135 109.308 57.4935 108.983C57.3735 108.659 57.3549 108.306 57.4401 107.97L63.2487 83.4431C63.3145 83.1648 63.3027 82.8737 63.2146 82.6017C63.1264 82.3296 62.9652 82.0869 62.7487 81.9001L43.733 65.4939C43.4703 65.2724 43.2806 64.9768 43.1886 64.6458C43.0966 64.3148 43.1066 63.9637 43.2174 63.6384C43.3193 63.3163 43.5157 63.0323 43.7811 62.8233C44.0465 62.6143 44.3687 62.49 44.7057 62.4665L69.6823 60.4314C69.9695 60.4085 70.2449 60.3067 70.4779 60.1371C70.711 59.9675 70.8925 59.7368 71.0026 59.4704L80.6198 36.1892C80.7457 35.8736 80.9634 35.603 81.2448 35.4124C81.5261 35.2218 81.8581 35.1199 82.1979 35.1199C82.5377 35.1199 82.8697 35.2218 83.151 35.4124C83.4323 35.603 83.65 35.8736 83.776 36.1892L93.3932 59.4704C93.5008 59.7324 93.6776 59.9602 93.9046 60.1294C94.1317 60.2987 94.4005 60.4031 94.6823 60.4314L119.643 62.4431C119.98 62.4666 120.302 62.5909 120.568 62.7999C120.833 63.0089 121.03 63.2929 121.131 63.615C121.249 63.9418 121.264 64.2968 121.175 64.6326C121.086 64.9683 120.896 65.2688 120.631 65.4939Z" fill="black" fill-opacity="0.38"/>
</svg>
