<svg width="54" height="51" viewBox="0 0 54 51" fill="none" xmlns="http://www.w3.org/2000/svg">
<path d="M4.08185 45.5294C7.41197 48.922 13.606 48.922 25.9996 48.922H27.9976C40.3912 48.922 46.588 48.922 49.9181 45.5294M4.08185 45.5294C0.751738 42.1344 1.89508 36.9833 4.17898 26.6763C5.80241 19.3511 6.61274 15.6861 9.69588 13.5214M49.9181 45.5294C53.2483 42.1344 52.1049 36.9833 49.821 26.6763C48.1976 19.3511 47.3845 15.6861 44.3013 13.5214M44.3013 13.5214C41.221 11.3567 36.8114 11.3567 28.0004 11.3567H25.9968C17.1859 11.3567 12.779 11.3567 9.69588 13.5214" stroke="#FF9900" stroke-width="3.125"/>
<path d="M18.6733 11.3567V9.00883C18.6733 7.14078 19.5505 5.34924 21.1118 4.02832C22.6731 2.70741 24.7906 1.96533 26.9986 1.96533C29.2066 1.96533 31.3242 2.70741 32.8855 4.02832C34.4468 5.34924 35.3239 7.14078 35.3239 9.00883V11.3567" stroke="#FF9900" stroke-width="3.125" stroke-linecap="round"/>
</svg>
