<svg width="131" height="126" viewBox="0 0 131 126" fill="none" xmlns="http://www.w3.org/2000/svg">
<g clip-path="url(#clip0_67_2)" filter="url(#filter0_d_67_2)">
<path d="M58.7683 85.2904L71.8167 40.3584M39.8345 108.91C40.7219 110.225 42.1994 111.063 43.9426 111.24C45.6859 111.418 47.5526 110.92 49.133 109.857L114.718 65.5776C116.294 64.5092 117.454 62.9637 117.941 61.2805C118.428 59.5972 118.203 57.9137 117.315 56.5993L110.501 46.5056C107.535 47.662 104.405 47.9258 101.595 47.2562C98.7843 46.5866 96.4493 45.0209 94.9505 42.8009C93.4516 40.5808 92.8722 37.8299 93.3017 34.9729C93.7312 32.1159 95.1457 29.3116 97.3268 26.9932L90.5121 16.8995C89.6247 15.5851 88.1472 14.7472 86.4039 14.5697C84.6607 14.3923 82.794 14.8897 81.2136 15.9529L15.629 60.2322C14.0521 61.3006 12.893 62.846 12.406 64.5293C11.9189 66.2125 12.1438 67.8961 13.0312 69.2105L19.8326 79.2843C22.81 78.1011 25.9606 77.8189 28.7924 78.4818C31.6241 79.1447 33.9776 80.7154 35.4854 82.9486C36.9931 85.1818 37.5702 87.9519 37.1266 90.8261C36.683 93.7004 35.2436 96.5171 33.0331 98.8365L39.8345 108.91Z" stroke="white" stroke-width="3.57143" stroke-linecap="round" stroke-linejoin="round"/>
<path d="M48.3468 63.4285C49.1371 62.8949 49.7186 62.1218 49.9633 61.2791C50.208 60.4365 50.0959 59.5934 49.6516 58.9353C49.2073 58.2773 48.4672 57.8581 47.5942 57.7701C46.7212 57.6821 45.7867 57.9325 44.9964 58.4661C44.206 58.9997 43.6245 59.7728 43.3798 60.6155C43.1351 61.4581 43.2472 62.3012 43.6915 62.9593C44.1358 63.6173 44.8759 64.0365 45.7489 64.1245C46.6219 64.2125 47.5564 63.9621 48.3468 63.4285ZM85.5886 67.1827C86.379 66.6491 86.9605 65.876 87.2052 65.0333C87.4499 64.1907 87.3378 63.3476 86.8935 62.6895C86.4492 62.0315 85.7091 61.6123 84.8361 61.5243C83.9631 61.4363 83.0286 61.6866 82.2382 62.2202C81.4479 62.7539 80.8664 63.527 80.6217 64.3697C80.377 65.2123 80.4891 66.0554 80.9334 66.7134C81.3777 67.3715 82.1178 67.7907 82.9908 67.8787C83.8638 67.9667 84.7983 67.7163 85.5886 67.1827Z" stroke="white" stroke-width="3.57143" stroke-linecap="round" stroke-linejoin="round"/>
</g>
<defs>
<filter id="filter0_d_67_2" x="-4" y="0" width="138.347" height="133.81" filterUnits="userSpaceOnUse" color-interpolation-filters="sRGB">
<feFlood flood-opacity="0" result="BackgroundImageFix"/>
<feColorMatrix in="SourceAlpha" type="matrix" values="0 0 0 0 0 0 0 0 0 0 0 0 0 0 0 0 0 0 127 0" result="hardAlpha"/>
<feOffset dy="4"/>
<feGaussianBlur stdDeviation="2"/>
<feComposite in2="hardAlpha" operator="out"/>
<feColorMatrix type="matrix" values="0 0 0 0 0 0 0 0 0 0 0 0 0 0 0 0 0 0 0.25 0"/>
<feBlend mode="normal" in2="BackgroundImageFix" result="effect1_dropShadow_67_2"/>
<feBlend mode="normal" in="SourceGraphic" in2="effect1_dropShadow_67_2" result="shape"/>
</filter>
<clipPath id="clip0_67_2">
<rect width="100.678" height="83.8264" fill="white" transform="translate(0 56.335) rotate(-34.0252)"/>
</clipPath>
</defs>
</svg>
