<svg width="160" height="160" viewBox="0 0 160 160" fill="none" xmlns="http://www.w3.org/2000/svg">
<circle cx="80" cy="80" r="79.5" fill="#D9D9D9" fill-opacity="0.16" stroke="#CCCCCC"/>
<path d="M81.625 84.25C78.5347 84.25 75.5137 83.3336 72.9442 81.6167C70.3747 79.8998 68.372 77.4595 67.1894 74.6044C66.0068 71.7493 65.6973 68.6077 66.3002 65.5767C66.9031 62.5458 68.3913 59.7617 70.5765 57.5765C72.7617 55.3913 75.5458 53.9031 78.5767 53.3002C81.6077 52.6973 84.7493 53.0068 87.6044 54.1894C90.4595 55.372 92.8998 57.3747 94.6167 59.9442C96.3336 62.5137 97.25 65.5347 97.25 68.625C97.245 72.7675 95.5973 76.7389 92.6681 79.6681C89.7389 82.5973 85.7675 84.245 81.625 84.25ZM81.625 59.25C79.7708 59.25 77.9582 59.7998 76.4165 60.83C74.8748 61.8601 73.6732 63.3243 72.9636 65.0374C72.2541 66.7504 72.0684 68.6354 72.4301 70.454C72.7919 72.2726 73.6848 73.943 74.9959 75.2541C76.307 76.5653 77.9775 77.4581 79.796 77.8199C81.6146 78.1816 83.4996 77.996 85.2127 77.2864C86.9257 76.5768 88.3899 75.3752 89.42 73.8335C90.4502 72.2918 91 70.4792 91 68.625C90.9975 66.1394 90.009 63.7562 88.2514 61.9986C86.4938 60.241 84.1107 59.2525 81.625 59.25Z" fill="#CCCCCC"/>
<path d="M82.375 123.5L56.0125 92.4094C55.6462 91.9425 55.2837 91.4727 54.925 91C50.4241 85.0669 47.9916 77.8222 48 70.375C48 61.2582 51.6217 52.5148 58.0682 46.0682C64.5148 39.6216 73.2582 36 82.375 36C91.4918 36 100.235 39.6216 106.682 46.0682C113.128 52.5148 116.75 61.2582 116.75 70.375C116.757 77.8186 114.326 85.0597 109.828 90.9906L109.825 91C109.825 91 108.888 92.2313 108.747 92.3969L82.375 123.5ZM59.9156 87.2344C59.9156 87.2344 60.6438 88.1969 60.8094 88.4031L82.375 113.838L103.969 88.3687C104.106 88.1969 104.838 87.2281 104.841 87.225C108.519 82.3786 110.507 76.4595 110.5 70.375C110.5 62.9158 107.537 55.7621 102.262 50.4876C96.9879 45.2132 89.8342 42.25 82.375 42.25C74.9158 42.25 67.7621 45.2132 62.4876 50.4876C57.2132 55.7621 54.25 62.9158 54.25 70.375C54.2423 76.4634 56.2327 82.3862 59.9156 87.2344Z" fill="#CCCCCC"/>
</svg>
