<svg width="60" height="60" viewBox="0 0 60 60" fill="none" xmlns="http://www.w3.org/2000/svg">
<path d="M7.5 13.125V43.125C7.5 44.1196 7.89509 45.0734 8.59835 45.7766C9.30161 46.4799 10.2554 46.875 11.25 46.875H48.75C49.7446 46.875 50.6984 46.4799 51.4016 45.7766C52.1049 45.0734 52.5 44.1196 52.5 43.125V13.125H7.5ZM7.5 9.375H52.5C53.4946 9.375 54.4484 9.77009 55.1516 10.4733C55.8549 11.1766 56.25 12.1304 56.25 13.125V43.125C56.25 45.1141 55.4598 47.0218 54.0533 48.4283C52.6468 49.8348 50.7391 50.625 48.75 50.625H11.25C9.26088 50.625 7.35322 49.8348 5.9467 48.4283C4.54018 47.0218 3.75 45.1141 3.75 43.125V13.125C3.75 12.1304 4.14509 11.1766 4.84835 10.4733C5.55161 9.77009 6.50544 9.375 7.5 9.375Z" fill="#FF9900" fill-opacity="0.95"/>
<path d="M52.9688 13.125L38.4675 29.7C37.4116 30.9071 36.1098 31.8745 34.6494 32.5373C33.189 33.2001 31.6038 33.543 30 33.543C28.3962 33.543 26.811 33.2001 25.3506 32.5373C23.8902 31.8745 22.5884 30.9071 21.5325 29.7L7.03125 13.125H52.9688ZM12.015 13.125L24.3525 27.2288C25.0564 28.0337 25.9244 28.6788 26.8981 29.1208C27.8718 29.5628 28.9288 29.7915 29.9981 29.7915C31.0675 29.7915 32.1244 29.5628 33.0981 29.1208C34.0719 28.6788 34.9398 28.0337 35.6438 27.2288L47.985 13.125H12.015Z" fill="#FF9900" fill-opacity="0.95"/>
</svg>
