<svg width="160" height="160" viewBox="0 0 160 160" fill="none" xmlns="http://www.w3.org/2000/svg">
<circle cx="80" cy="80" r="79.5" fill="#D9D9D9" fill-opacity="0.16" stroke="#CCCCCC"/>
<path d="M38.1395 66.1401C37.3061 76.1401 40.2228 84.4734 46.4728 91.9734C52.7228 99.4734 61.0561 102.807 71.0561 102.807H112.723C114.806 102.807 116.889 101.973 118.556 100.307C120.223 98.6401 121.056 96.5567 121.056 94.4734V91.1401C121.056 88.6401 120.639 85.7234 120.223 81.9734H86.0561C81.8895 81.9734 78.5561 80.3067 75.6395 77.3901C72.7228 74.4734 71.0561 70.7234 71.0561 66.9734C71.0561 60.3067 73.9728 55.7234 80.2228 53.2234L100.223 44.4734C93.1395 39.4734 84.8061 36.5567 75.2228 36.1401C66.0561 35.3067 57.7228 38.2234 50.2228 44.0567C42.7228 49.8901 38.9728 56.9734 38.1395 66.1401ZM79.3895 66.9734C79.3895 68.64 80.2228 70.3067 81.4728 71.5567C82.7228 72.8067 84.3895 73.6401 86.0561 73.6401H118.556C116.056 64.4734 112.306 56.9734 106.889 51.1401L83.5561 60.7234C80.6395 61.5567 79.3895 63.6401 79.3895 66.9734Z" fill="#CCCCCC"/>
</svg>
