<svg width="60" height="60" viewBox="0 0 60 60" fill="none" xmlns="http://www.w3.org/2000/svg">
<path d="M17.75 0.833008H42.25C51.5833 0.833008 59.1666 8.41634 59.1666 17.7497V42.2497C59.1666 46.7363 57.3844 51.0391 54.2119 54.2116C51.0394 57.3841 46.7366 59.1663 42.25 59.1663H17.75C8.41665 59.1663 0.833313 51.583 0.833313 42.2497V17.7497C0.833313 13.2631 2.6156 8.96027 5.78809 5.78778C8.96058 2.61529 13.2634 0.833008 17.75 0.833008ZM17.1666 6.66634C14.3819 6.66634 11.7112 7.77259 9.74203 9.74172C7.77289 11.7109 6.66665 14.3816 6.66665 17.1663V42.833C6.66665 48.6372 11.3625 53.333 17.1666 53.333H42.8333C45.6181 53.333 48.2888 52.2268 50.2579 50.2576C52.2271 48.2885 53.3333 45.6178 53.3333 42.833V17.1663C53.3333 11.3622 48.6375 6.66634 42.8333 6.66634H17.1666ZM45.3125 11.0413C46.2794 11.0413 47.2067 11.4255 47.8905 12.1092C48.5742 12.7929 48.9583 13.7202 48.9583 14.6872C48.9583 15.6541 48.5742 16.5814 47.8905 17.2652C47.2067 17.9489 46.2794 18.333 45.3125 18.333C44.3455 18.333 43.4182 17.9489 42.7345 17.2652C42.0508 16.5814 41.6666 15.6541 41.6666 14.6872C41.6666 13.7202 42.0508 12.7929 42.7345 12.1092C43.4182 11.4255 44.3455 11.0413 45.3125 11.0413ZM30 15.4163C33.8677 15.4163 37.577 16.9528 40.312 19.6877C43.0469 22.4226 44.5833 26.1319 44.5833 29.9997C44.5833 33.8674 43.0469 37.5767 40.312 40.3116C37.577 43.0466 33.8677 44.583 30 44.583C26.1322 44.583 22.4229 43.0466 19.688 40.3116C16.9531 37.5767 15.4166 33.8674 15.4166 29.9997C15.4166 26.1319 16.9531 22.4226 19.688 19.6877C22.4229 16.9528 26.1322 15.4163 30 15.4163ZM30 21.2497C27.6793 21.2497 25.4537 22.1715 23.8128 23.8125C22.1719 25.4534 21.25 27.679 21.25 29.9997C21.25 32.3203 22.1719 34.5459 23.8128 36.1869C25.4537 37.8278 27.6793 38.7497 30 38.7497C32.3206 38.7497 34.5462 37.8278 36.1872 36.1869C37.8281 34.5459 38.75 32.3203 38.75 29.9997C38.75 27.679 37.8281 25.4534 36.1872 23.8125C34.5462 22.1715 32.3206 21.2497 30 21.2497Z" fill="#F24E1E"/>
</svg>
