<svg width="117" height="58" viewBox="0 0 117 58" fill="none" xmlns="http://www.w3.org/2000/svg">
<path d="M0.576 23V20.6L2.472 19.832L2.016 20.48V8.36L2.664 9.296L0.576 8.48V6.08L6.816 5.96H13.152L13.176 10.88H10.296L9.768 8.984L10.608 9.44H6.216L6.936 8.72V13.328L6.216 12.68H11.256V16.16H6.216L6.936 15.44V20.48L6.384 19.832L8.736 20.6V23H0.576ZM19.7139 9.68C21.7619 9.68 23.3379 10.248 24.4419 11.384C25.5619 12.52 26.1219 14.152 26.1219 16.28C26.1219 17.768 25.8419 19.04 25.2819 20.096C24.7379 21.152 23.9539 21.96 22.9299 22.52C21.9059 23.08 20.6819 23.36 19.2579 23.36C17.2099 23.36 15.6419 22.784 14.5539 21.632C13.4659 20.48 12.9219 18.848 12.9219 16.736C12.9219 15.248 13.1859 13.984 13.7139 12.944C14.2579 11.888 15.0339 11.08 16.0419 10.52C17.0499 9.96 18.2739 9.68 19.7139 9.68ZM19.4979 13.04C18.9059 13.04 18.4899 13.296 18.2499 13.808C18.0259 14.32 17.9139 15.224 17.9139 16.52C17.9139 17.816 18.0259 18.72 18.2499 19.232C18.4899 19.744 18.9059 20 19.4979 20C19.9139 20 20.2339 19.888 20.4579 19.664C20.6979 19.424 20.8659 19.048 20.9619 18.536C21.0739 18.008 21.1299 17.32 21.1299 16.472C21.1299 15.192 21.0099 14.304 20.7699 13.808C20.5299 13.296 20.1059 13.04 19.4979 13.04ZM33.5889 9.68C35.6369 9.68 37.2129 10.248 38.3169 11.384C39.4369 12.52 39.9969 14.152 39.9969 16.28C39.9969 17.768 39.7169 19.04 39.1569 20.096C38.6129 21.152 37.8289 21.96 36.8049 22.52C35.7809 23.08 34.5569 23.36 33.1329 23.36C31.0849 23.36 29.5169 22.784 28.4289 21.632C27.3409 20.48 26.7969 18.848 26.7969 16.736C26.7969 15.248 27.0609 13.984 27.5889 12.944C28.1329 11.888 28.9089 11.08 29.9169 10.52C30.9249 9.96 32.1489 9.68 33.5889 9.68ZM33.3729 13.04C32.7809 13.04 32.3649 13.296 32.1249 13.808C31.9009 14.32 31.7889 15.224 31.7889 16.52C31.7889 17.816 31.9009 18.72 32.1249 19.232C32.3649 19.744 32.7809 20 33.3729 20C33.7889 20 34.1089 19.888 34.3329 19.664C34.5729 19.424 34.7409 19.048 34.8369 18.536C34.9489 18.008 35.0049 17.32 35.0049 16.472C35.0049 15.192 34.8849 14.304 34.6449 13.808C34.4049 13.296 33.9809 13.04 33.3729 13.04ZM45.4719 23.36C44.5279 23.36 43.6959 23.12 42.9759 22.64C42.2719 22.144 41.7199 21.416 41.3199 20.456C40.9199 19.48 40.7199 18.288 40.7199 16.88C40.7199 14.384 41.3519 12.56 42.6159 11.408C43.8959 10.256 45.7199 9.68 48.0879 9.68C48.3439 9.68 48.5999 9.688 48.8559 9.704C49.1119 9.704 49.3759 9.72 49.6479 9.752L48.8079 10.256V7.16L49.0959 7.568L47.3679 6.8V4.4L53.6079 4.16V20.408L53.0799 19.784L54.9279 20.6V23L49.8639 23.24L49.2639 21.152L49.7439 21.296C49.0559 21.984 48.3679 22.504 47.6799 22.856C47.0079 23.192 46.2719 23.36 45.4719 23.36ZM47.3919 19.88C47.6799 19.88 47.9839 19.8 48.3039 19.64C48.6239 19.464 48.9759 19.224 49.3599 18.92L48.8079 20.288V12.152L49.3599 13.232C48.8159 13.104 48.3439 13.04 47.9439 13.04C47.0799 13.04 46.4879 13.352 46.1679 13.976C45.8639 14.584 45.7119 15.4 45.7119 16.424C45.7119 17.112 45.7679 17.72 45.8799 18.248C46.0079 18.76 46.1919 19.16 46.4319 19.448C46.6879 19.736 47.0079 19.88 47.3919 19.88ZM5.136 52.36C4.192 52.36 3.36 52.12 2.64 51.64C1.936 51.144 1.384 50.416 0.984 49.456C0.584 48.48 0.384 47.288 0.384 45.88C0.384 43.384 1.016 41.56 2.28 40.408C3.56 39.256 5.384 38.68 7.752 38.68C8.008 38.68 8.264 38.688 8.52 38.704C8.776 38.704 9.04 38.72 9.312 38.752L8.472 39.256V36.16L8.76 36.568L7.032 35.8V33.4L13.272 33.16V49.408L12.744 48.784L14.592 49.6V52L9.528 52.24L8.928 50.152L9.408 50.296C8.72 50.984 8.032 51.504 7.344 51.856C6.672 52.192 5.936 52.36 5.136 52.36ZM7.056 48.88C7.344 48.88 7.648 48.8 7.968 48.64C8.288 48.464 8.64 48.224 9.024 47.92L8.472 49.288V41.152L9.024 42.232C8.48 42.104 8.008 42.04 7.608 42.04C6.744 42.04 6.152 42.352 5.832 42.976C5.528 43.584 5.376 44.4 5.376 45.424C5.376 46.112 5.432 46.72 5.544 47.248C5.672 47.76 5.856 48.16 6.096 48.448C6.352 48.736 6.672 48.88 7.056 48.88ZM21.3176 52.36C20.0696 52.36 18.9736 52.112 18.0296 51.616C17.1016 51.12 16.3816 50.384 15.8696 49.408C15.3576 48.432 15.1016 47.224 15.1016 45.784C15.1016 44.296 15.3736 43.024 15.9176 41.968C16.4776 40.912 17.2616 40.104 18.2696 39.544C19.2776 38.968 20.4776 38.68 21.8696 38.68C23.2296 38.68 24.3256 38.936 25.1576 39.448C26.0056 39.96 26.6216 40.656 27.0056 41.536C27.3896 42.416 27.5816 43.408 27.5816 44.512C27.5816 44.864 27.5656 45.224 27.5336 45.592C27.5016 45.944 27.4456 46.304 27.3656 46.672H19.0616V44.2H23.3816L22.6376 44.728C22.6536 44.12 22.6296 43.616 22.5656 43.216C22.5016 42.816 22.3816 42.52 22.2056 42.328C22.0456 42.136 21.7976 42.04 21.4616 42.04C21.0296 42.04 20.7096 42.192 20.5016 42.496C20.3096 42.784 20.1816 43.16 20.1176 43.624C20.0536 44.072 20.0216 44.544 20.0216 45.04C20.0216 45.712 20.0776 46.344 20.1896 46.936C20.3016 47.512 20.5336 47.984 20.8856 48.352C21.2376 48.704 21.7656 48.88 22.4696 48.88C22.9336 48.88 23.4456 48.8 24.0056 48.64C24.5816 48.464 25.1816 48.216 25.8056 47.896L27.3656 50.368C26.3896 51.04 25.3896 51.544 24.3656 51.88C23.3416 52.2 22.3256 52.36 21.3176 52.36ZM34.2958 49.312L34.0078 48.952L35.6158 49.6V52H28.1758V49.6L29.7838 48.952L29.4958 49.312V36.136L29.7358 36.4L28.1758 35.8V33.4L34.2958 33.16V49.312ZM42.4131 49.312L42.1251 48.952L43.7331 49.6V52H36.2931V49.6L37.9011 48.952L37.6131 49.312V41.896L37.8531 42.136L36.2931 41.536V39.136L42.4131 38.944V49.312ZM39.9651 37.792C39.1811 37.792 38.5411 37.568 38.0451 37.12C37.5651 36.672 37.3251 36.032 37.3251 35.2C37.3251 34.32 37.5731 33.664 38.0691 33.232C38.5811 32.8 39.2211 32.584 39.9891 32.584C40.7411 32.584 41.3651 32.8 41.8611 33.232C42.3571 33.648 42.6051 34.296 42.6051 35.176C42.6051 36.04 42.3491 36.696 41.8371 37.144C41.3411 37.576 40.7171 37.792 39.9651 37.792ZM51.2509 39.16L57.1069 38.92V41.32L56.0269 42.04L56.6029 41.392L52.8349 52.048H47.2189L44.0989 41.56L44.6989 42.04L43.4509 41.56V39.16L49.9309 38.92V41.32L48.6349 41.944L48.9469 41.392L50.6029 49.024H50.2429L52.2349 41.656L52.4509 41.992L51.2509 41.56V39.16ZM63.3176 52.36C62.0696 52.36 60.9736 52.112 60.0296 51.616C59.1016 51.12 58.3816 50.384 57.8696 49.408C57.3576 48.432 57.1016 47.224 57.1016 45.784C57.1016 44.296 57.3736 43.024 57.9176 41.968C58.4776 40.912 59.2616 40.104 60.2696 39.544C61.2776 38.968 62.4776 38.68 63.8696 38.68C65.2296 38.68 66.3256 38.936 67.1576 39.448C68.0056 39.96 68.6216 40.656 69.0056 41.536C69.3896 42.416 69.5816 43.408 69.5816 44.512C69.5816 44.864 69.5656 45.224 69.5336 45.592C69.5016 45.944 69.4456 46.304 69.3656 46.672H61.0616V44.2H65.3816L64.6376 44.728C64.6536 44.12 64.6296 43.616 64.5656 43.216C64.5016 42.816 64.3816 42.52 64.2056 42.328C64.0456 42.136 63.7976 42.04 63.4616 42.04C63.0296 42.04 62.7096 42.192 62.5016 42.496C62.3096 42.784 62.1816 43.16 62.1176 43.624C62.0536 44.072 62.0216 44.544 62.0216 45.04C62.0216 45.712 62.0776 46.344 62.1896 46.936C62.3016 47.512 62.5336 47.984 62.8856 48.352C63.2376 48.704 63.7656 48.88 64.4696 48.88C64.9336 48.88 65.4456 48.8 66.0056 48.64C66.5816 48.464 67.1816 48.216 67.8056 47.896L69.3656 50.368C68.3896 51.04 67.3896 51.544 66.3656 51.88C65.3416 52.2 64.3256 52.36 63.3176 52.36ZM70.5118 52V49.6L72.2398 48.928L71.8318 49.6V41.512L72.3118 42.256L70.5118 41.536V39.136L75.5758 38.896L76.1518 41.104L75.5518 40.984C76.3038 40.232 77.0318 39.664 77.7358 39.28C78.4398 38.88 79.1838 38.68 79.9678 38.68C80.4798 38.68 81.0318 38.76 81.6238 38.92L81.3838 44.296H78.6478L78.2398 41.608L78.6478 42.496C78.5838 42.464 78.5118 42.44 78.4318 42.424C78.3518 42.408 78.2718 42.4 78.1918 42.4C77.8398 42.4 77.4798 42.52 77.1118 42.76C76.7438 42.984 76.4638 43.256 76.2718 43.576L76.6318 42.352V49.6L76.1278 48.928L78.3118 49.6V52H70.5118ZM82.4777 57.664L82.8857 54.304C83.2057 54.352 83.5017 54.384 83.7737 54.4C84.0617 54.432 84.3177 54.448 84.5417 54.448C85.1497 54.448 85.6537 54.344 86.0537 54.136C86.4537 53.944 86.8057 53.616 87.1097 53.152C87.4297 52.704 87.7497 52.088 88.0697 51.304L87.8777 52.84L83.1497 41.608L83.5097 41.968L82.2857 41.56V39.16L88.9577 38.92V41.32L87.7577 41.824L87.9497 41.464L90.4697 49.264L89.3177 49L91.3097 41.56L91.5017 41.992L90.3017 41.56V39.16L96.4937 38.92V41.32L95.1497 41.872L95.7257 41.512L92.0297 51.88C91.6617 52.904 91.2457 53.792 90.7817 54.544C90.3337 55.296 89.8217 55.92 89.2457 56.416C88.6857 56.912 88.0377 57.28 87.3017 57.52C86.5657 57.76 85.7417 57.88 84.8297 57.88C84.1097 57.88 83.3257 57.808 82.4777 57.664Z" fill="#FF9900"/>
</svg>
