<svg width="40" height="40" viewBox="0 0 40 40" fill="none" xmlns="http://www.w3.org/2000/svg">
<path d="M38.8731 37.7676L28.5801 27.4747C31.4649 24.3012 32.9942 20.1254 32.8411 15.8394C32.688 11.5535 30.8647 7.49737 27.7608 4.53785C24.657 1.57833 20.5187 -0.0498767 16.2303 0.0011648C11.9419 0.0522063 7.84356 1.77844 4.811 4.811C1.77844 7.84356 0.0522063 11.9419 0.0011648 16.2303C-0.0498767 20.5187 1.57833 24.657 4.53785 27.7608C7.49737 30.8647 11.5535 32.688 15.8394 32.8411C20.1254 32.9942 24.3012 31.4649 27.4747 28.5801L37.7676 38.8731C37.9142 39.0197 38.1131 39.1021 38.3204 39.1021C38.5277 39.1021 38.7265 39.0197 38.8731 38.8731C39.0197 38.7265 39.1021 38.5277 39.1021 38.3204C39.1021 38.1131 39.0197 37.9142 38.8731 37.7676ZM1.60162 16.4454C1.60162 13.5096 2.47219 10.6397 4.10325 8.19863C5.7343 5.75759 8.05258 3.85502 10.7649 2.73154C13.4773 1.60805 16.4618 1.31409 19.3412 1.88684C22.2207 2.45959 24.8656 3.87332 26.9415 5.94926C29.0174 8.02519 30.4312 10.6701 31.0039 13.5495C31.5767 16.4289 31.2827 19.4135 30.1592 22.1258C29.0357 24.8382 27.1332 27.1565 24.6921 28.7875C22.2511 30.4186 19.3812 31.2891 16.4454 31.2891C12.5098 31.285 8.73667 29.7198 5.95383 26.9369C3.17098 24.1541 1.60576 20.3809 1.60162 16.4454Z" fill="#FF9900"/>
</svg>
