<svg width="60" height="60" viewBox="0 0 60 60" fill="none" xmlns="http://www.w3.org/2000/svg">
<path d="M40 27.5C39.2389 27.4911 38.4933 27.7156 37.8636 28.1433C37.2339 28.5709 36.7504 29.1812 36.478 29.892C36.2057 30.6028 36.1577 31.38 36.3404 32.1189C36.5231 32.8578 36.9278 33.523 37.5 34.025V37.5C37.5 38.163 37.7634 38.7989 38.2322 39.2678C38.7011 39.7366 39.337 40 40 40C40.663 40 41.2989 39.7366 41.7678 39.2678C42.2366 38.7989 42.5 38.163 42.5 37.5V34.025C43.0722 33.523 43.4769 32.8578 43.6596 32.1189C43.8423 31.38 43.7943 30.6028 43.522 29.892C43.2496 29.1812 42.7661 28.5709 42.1364 28.1433C41.5067 27.7156 40.7611 27.4911 40 27.5ZM52.5 17.5V12.5C52.5 9.18479 51.183 6.00537 48.8388 3.66117C46.4946 1.31696 43.3152 0 40 0C36.6848 0 33.5054 1.31696 31.1612 3.66117C28.817 6.00537 27.5 9.18479 27.5 12.5V17.5C25.5109 17.5 23.6032 18.2902 22.1967 19.6967C20.7902 21.1032 20 23.0109 20 25V42.5C20 44.4891 20.7902 46.3968 22.1967 47.8033C23.6032 49.2098 25.5109 50 27.5 50H52.5C54.4891 50 56.3968 49.2098 57.8033 47.8033C59.2098 46.3968 60 44.4891 60 42.5V25C60 23.0109 59.2098 21.1032 57.8033 19.6967C56.3968 18.2902 54.4891 17.5 52.5 17.5ZM32.5 12.5C32.5 10.5109 33.2902 8.60322 34.6967 7.1967C36.1032 5.79018 38.0109 5 40 5C41.9891 5 43.8968 5.79018 45.3033 7.1967C46.7098 8.60322 47.5 10.5109 47.5 12.5V17.5H32.5V12.5ZM55 42.5C55 43.163 54.7366 43.7989 54.2678 44.2678C53.7989 44.7366 53.163 45 52.5 45H27.5C26.837 45 26.2011 44.7366 25.7322 44.2678C25.2634 43.7989 25 43.163 25 42.5V25C25 24.337 25.2634 23.7011 25.7322 23.2322C26.2011 22.7634 26.837 22.5 27.5 22.5H52.5C53.163 22.5 53.7989 22.7634 54.2678 23.2322C54.7366 23.7011 55 24.337 55 25V42.5Z" fill="#FF9900" fill-opacity="0.95"/>
</svg>
