<svg width="160" height="160" viewBox="0 0 160 160" fill="none" xmlns="http://www.w3.org/2000/svg">
<circle cx="80" cy="80" r="80" fill="#D9D9D9" fill-opacity="0.16"/>
<circle cx="80" cy="80" r="79.5" stroke="#CCCCCC" stroke-opacity="0.8"/>
<path d="M81.5833 40C92.0815 40 102.15 44.1704 109.573 51.5937C116.996 59.017 121.167 69.0852 121.167 79.5833C121.167 90.0815 116.996 100.15 109.573 107.573C102.15 114.996 92.0815 119.167 81.5833 119.167C71.0852 119.167 61.017 114.996 53.5937 107.573C46.1704 100.15 42 90.0815 42 79.5833C42 69.0852 46.1704 59.017 53.5937 51.5937C61.017 44.1704 71.0852 40 81.5833 40ZM81.5833 44.1667C72.1902 44.1667 63.1819 47.8981 56.54 54.54C49.8981 61.1819 46.1667 70.1902 46.1667 79.5833C46.1667 88.9764 49.8981 97.9848 56.54 104.627C63.1819 111.269 72.1902 115 81.5833 115C86.2343 115 90.8398 114.084 95.1367 112.304C99.4337 110.524 103.338 107.915 106.627 104.627C109.915 101.338 112.524 97.4337 114.304 93.1367C116.084 88.8398 117 84.2343 117 79.5833C117 70.1902 113.269 61.1819 106.627 54.54C99.9848 47.8981 90.9764 44.1667 81.5833 44.1667ZM79.5 56.6667H83.6667V79.25L103.25 90.5417L101.167 94.1667L79.5 81.6667V56.6667Z" fill="black" fill-opacity="0.28"/>
</svg>
