<svg width="70" height="70" viewBox="0 0 70 70" fill="none" xmlns="http://www.w3.org/2000/svg">
<path d="M65.5083 17.4998C63.2625 18.5207 60.8416 19.1915 58.3333 19.5123C60.9 17.9665 62.8833 15.5165 63.8166 12.5707C61.3958 14.029 58.7125 15.0498 55.8833 15.6332C53.5791 13.1248 50.3416 11.6665 46.6666 11.6665C39.8125 11.6665 34.2125 17.2665 34.2125 24.179C34.2125 25.1707 34.3291 26.1332 34.5333 27.0373C24.15 26.5123 14.9041 21.5248 8.74997 13.9707C7.6708 15.8082 7.05831 17.9665 7.05831 20.2415C7.05831 24.5873 9.2458 28.4373 12.6291 30.6248C10.5583 30.6248 8.63331 30.0415 6.94164 29.1665V29.254C6.94164 35.3207 11.2583 40.3957 16.975 41.5332C15.1399 42.0376 13.2126 42.1075 11.3458 41.7373C12.138 44.2237 13.6895 46.3994 15.7821 47.9584C17.8748 49.5174 20.4034 50.3814 23.0125 50.429C18.5898 53.9305 13.1075 55.8231 7.46664 55.7957C6.47497 55.7957 5.4833 55.7373 4.49164 55.6207C10.0333 59.179 16.625 61.2498 23.6833 61.2498C46.6666 61.2498 59.2958 42.1748 59.2958 25.6373C59.2958 25.0832 59.2958 24.5582 59.2666 24.004C61.7166 22.254 63.8166 20.0373 65.5083 17.4998Z" fill="#F24E1E"/>
</svg>
